<svg width="802" height="292" viewBox="0 0 802 292" fill="none" xmlns="http://www.w3.org/2000/svg">
<path d="M21.0284 193C17.8604 193 15.4124 192.184 13.6844 190.552C12.0524 188.824 11.2364 186.376 11.2364 183.208V101.272C11.2364 98.104 12.0524 95.704 13.6844 94.072C15.4124 92.344 17.8604 91.48 21.0284 91.48H55.5884C62.6924 91.48 68.7404 92.536 73.7324 94.648C78.7244 96.76 82.5164 99.784 85.1084 103.72C87.7964 107.656 89.1404 112.36 89.1404 117.832C89.1404 123.976 87.3644 129.16 83.8124 133.384C80.2604 137.608 75.4124 140.44 69.2684 141.88V139.72C76.3724 140.776 81.8924 143.464 85.8284 147.784C89.7644 152.104 91.7324 157.72 91.7324 164.632C91.7324 173.656 88.6604 180.664 82.5164 185.656C76.4684 190.552 68.0204 193 57.1724 193H21.0284ZM28.9484 179.032H54.8684C61.3964 179.032 66.1964 177.784 69.2684 175.288C72.3404 172.696 73.8764 168.856 73.8764 163.768C73.8764 158.584 72.3404 154.744 69.2684 152.248C66.1964 149.752 61.3964 148.504 54.8684 148.504H28.9484V179.032ZM28.9484 134.536H52.4204C58.7564 134.536 63.4604 133.336 66.5324 130.936C69.7004 128.44 71.2844 124.792 71.2844 119.992C71.2844 115.192 69.7004 111.592 66.5324 109.192C63.4604 106.696 58.7564 105.448 52.4204 105.448H28.9484V134.536ZM146.682 194.152C144.378 194.152 142.506 193.624 141.066 192.568C139.722 191.512 138.906 190.12 138.618 188.392C138.33 186.568 138.666 184.552 139.626 182.344L177.642 98.104C178.89 95.32 180.378 93.352 182.106 92.2C183.93 90.952 185.994 90.328 188.298 90.328C190.506 90.328 192.474 90.952 194.202 92.2C196.026 93.352 197.562 95.32 198.81 98.104L236.97 182.344C238.026 184.552 238.41 186.568 238.122 188.392C237.834 190.216 237.018 191.656 235.674 192.712C234.33 193.672 232.554 194.152 230.346 194.152C227.658 194.152 225.546 193.528 224.01 192.28C222.57 190.936 221.274 188.92 220.122 186.232L210.762 164.488L218.538 169.528H157.77L165.546 164.488L156.33 186.232C155.082 189.016 153.786 191.032 152.442 192.28C151.098 193.528 149.178 194.152 146.682 194.152ZM188.01 111.496L167.85 159.448L164.106 154.84H212.202L208.602 159.448L188.298 111.496H188.01ZM297.47 194.152C294.782 194.152 292.718 193.384 291.278 191.848C289.838 190.312 289.118 188.2 289.118 185.512V98.968C289.118 96.184 289.886 94.072 291.422 92.632C292.958 91.096 295.07 90.328 297.758 90.328C300.158 90.328 302.03 90.808 303.374 91.768C304.814 92.632 306.11 94.168 307.262 96.376L342.83 162.184H338.222L373.79 96.376C374.942 94.168 376.19 92.632 377.534 91.768C378.878 90.808 380.75 90.328 383.15 90.328C385.838 90.328 387.902 91.096 389.342 92.632C390.782 94.072 391.502 96.184 391.502 98.968V185.512C391.502 188.2 390.782 190.312 389.342 191.848C387.998 193.384 385.934 194.152 383.15 194.152C380.462 194.152 378.398 193.384 376.958 191.848C375.518 190.312 374.798 188.2 374.798 185.512V118.84H377.966L347.726 173.992C346.766 175.624 345.758 176.824 344.702 177.592C343.646 178.36 342.206 178.744 340.382 178.744C338.558 178.744 337.07 178.36 335.918 177.592C334.766 176.728 333.758 175.528 332.894 173.992L302.366 118.696H305.822V185.512C305.822 188.2 305.102 190.312 303.662 191.848C302.318 193.384 300.254 194.152 297.47 194.152ZM459.062 194.152C456.086 194.152 453.782 193.336 452.15 191.704C450.614 189.976 449.846 187.624 449.846 184.648V99.688C449.846 96.616 450.614 94.312 452.15 92.776C453.782 91.144 456.086 90.328 459.062 90.328C462.038 90.328 464.294 91.144 465.83 92.776C467.462 94.312 468.278 96.616 468.278 99.688V136.408H468.566L509.894 94.936C511.43 93.4 512.966 92.248 514.502 91.48C516.038 90.712 517.766 90.328 519.686 90.328C522.47 90.328 524.438 91.048 525.59 92.488C526.838 93.928 527.318 95.608 527.03 97.528C526.838 99.448 525.926 101.224 524.294 102.856L482.246 144.472L482.39 136.12L526.31 180.76C528.326 182.68 529.382 184.696 529.478 186.808C529.574 188.92 528.902 190.696 527.462 192.136C526.118 193.48 524.102 194.152 521.414 194.152C519.11 194.152 517.238 193.672 515.798 192.712C514.454 191.752 512.87 190.36 511.046 188.536L468.566 146.056H468.278V184.648C468.278 187.624 467.51 189.976 465.974 191.704C464.438 193.336 462.134 194.152 459.062 194.152ZM590.633 193.72C587.369 193.72 584.729 192.712 582.713 190.696C580.793 188.68 579.833 186.088 579.833 182.92C579.833 179.848 580.793 177.352 582.713 175.432C584.729 173.416 587.369 172.408 590.633 172.408C593.993 172.408 596.585 173.416 598.409 175.432C600.329 177.352 601.289 179.848 601.289 182.92C601.289 186.088 600.329 188.68 598.409 190.696C596.585 192.712 593.993 193.72 590.633 193.72ZM664.944 194.152C661.968 194.152 659.616 193.336 657.888 191.704C656.256 189.976 655.44 187.528 655.44 184.36V101.272C655.44 98.104 656.256 95.704 657.888 94.072C659.616 92.344 662.064 91.48 665.232 91.48H715.488C717.984 91.48 719.856 92.104 721.104 93.352C722.352 94.6 722.976 96.376 722.976 98.68C722.976 101.08 722.352 102.952 721.104 104.296C719.856 105.544 717.984 106.168 715.488 106.168H673.872V134.824H712.464C714.864 134.824 716.688 135.448 717.936 136.696C719.28 137.944 719.952 139.72 719.952 142.024C719.952 144.424 719.28 146.296 717.936 147.64C716.688 148.888 714.864 149.512 712.464 149.512H673.872V184.36C673.872 190.888 670.896 194.152 664.944 194.152ZM781.515 194.152C778.539 194.152 776.235 193.336 774.603 191.704C773.067 189.976 772.299 187.624 772.299 184.648V99.832C772.299 96.76 773.067 94.408 774.603 92.776C776.235 91.144 778.539 90.328 781.515 90.328C784.491 90.328 786.747 91.144 788.283 92.776C789.915 94.408 790.731 96.76 790.731 99.832V184.648C790.731 187.624 789.963 189.976 788.427 191.704C786.891 193.336 784.587 194.152 781.515 194.152Z" fill="#F3E9DD"/>
</svg>
