<svg width="1406" height="406" viewBox="0 0 1406 406" fill="none" xmlns="http://www.w3.org/2000/svg">
<path d="M517.028 250C513.86 250 511.412 249.184 509.684 247.552C508.052 245.824 507.236 243.376 507.236 240.208V158.272C507.236 155.104 508.052 152.704 509.684 151.072C511.412 149.344 513.86 148.48 517.028 148.48H551.588C558.692 148.48 564.74 149.536 569.732 151.648C574.724 153.76 578.516 156.784 581.108 160.72C583.796 164.656 585.14 169.36 585.14 174.832C585.14 180.976 583.364 186.16 579.812 190.384C576.26 194.608 571.412 197.44 565.268 198.88V196.72C572.372 197.776 577.892 200.464 581.828 204.784C585.764 209.104 587.732 214.72 587.732 221.632C587.732 230.656 584.66 237.664 578.516 242.656C572.468 247.552 564.02 250 553.172 250H517.028ZM524.948 236.032H550.868C557.396 236.032 562.196 234.784 565.268 232.288C568.34 229.696 569.876 225.856 569.876 220.768C569.876 215.584 568.34 211.744 565.268 209.248C562.196 206.752 557.396 205.504 550.868 205.504H524.948V236.032ZM524.948 191.536H548.42C554.756 191.536 559.46 190.336 562.532 187.936C565.7 185.44 567.284 181.792 567.284 176.992C567.284 172.192 565.7 168.592 562.532 166.192C559.46 163.696 554.756 162.448 548.42 162.448H524.948V191.536ZM642.682 251.152C640.378 251.152 638.506 250.624 637.066 249.568C635.722 248.512 634.906 247.12 634.618 245.392C634.33 243.568 634.666 241.552 635.626 239.344L673.642 155.104C674.89 152.32 676.378 150.352 678.106 149.2C679.93 147.952 681.994 147.328 684.298 147.328C686.506 147.328 688.474 147.952 690.202 149.2C692.026 150.352 693.562 152.32 694.81 155.104L732.97 239.344C734.026 241.552 734.41 243.568 734.122 245.392C733.834 247.216 733.018 248.656 731.674 249.712C730.33 250.672 728.554 251.152 726.346 251.152C723.658 251.152 721.546 250.528 720.01 249.28C718.57 247.936 717.274 245.92 716.122 243.232L706.762 221.488L714.538 226.528H653.77L661.546 221.488L652.33 243.232C651.082 246.016 649.786 248.032 648.442 249.28C647.098 250.528 645.178 251.152 642.682 251.152ZM684.01 168.496L663.85 216.448L660.106 211.84H708.202L704.602 216.448L684.298 168.496H684.01ZM793.47 251.152C790.782 251.152 788.718 250.384 787.278 248.848C785.838 247.312 785.118 245.2 785.118 242.512V155.968C785.118 153.184 785.886 151.072 787.422 149.632C788.958 148.096 791.07 147.328 793.758 147.328C796.158 147.328 798.03 147.808 799.374 148.768C800.814 149.632 802.11 151.168 803.262 153.376L838.83 219.184H834.222L869.79 153.376C870.942 151.168 872.19 149.632 873.534 148.768C874.878 147.808 876.75 147.328 879.15 147.328C881.838 147.328 883.902 148.096 885.342 149.632C886.782 151.072 887.502 153.184 887.502 155.968V242.512C887.502 245.2 886.782 247.312 885.342 248.848C883.998 250.384 881.934 251.152 879.15 251.152C876.462 251.152 874.398 250.384 872.958 248.848C871.518 247.312 870.798 245.2 870.798 242.512V175.84H873.966L843.726 230.992C842.766 232.624 841.758 233.824 840.702 234.592C839.646 235.36 838.206 235.744 836.382 235.744C834.558 235.744 833.07 235.36 831.918 234.592C830.766 233.728 829.758 232.528 828.894 230.992L798.366 175.696H801.822V242.512C801.822 245.2 801.102 247.312 799.662 248.848C798.318 250.384 796.254 251.152 793.47 251.152ZM955.062 251.152C952.086 251.152 949.782 250.336 948.15 248.704C946.614 246.976 945.846 244.624 945.846 241.648V156.688C945.846 153.616 946.614 151.312 948.15 149.776C949.782 148.144 952.086 147.328 955.062 147.328C958.038 147.328 960.294 148.144 961.83 149.776C963.462 151.312 964.278 153.616 964.278 156.688V193.408H964.566L1005.89 151.936C1007.43 150.4 1008.97 149.248 1010.5 148.48C1012.04 147.712 1013.77 147.328 1015.69 147.328C1018.47 147.328 1020.44 148.048 1021.59 149.488C1022.84 150.928 1023.32 152.608 1023.03 154.528C1022.84 156.448 1021.93 158.224 1020.29 159.856L978.246 201.472L978.39 193.12L1022.31 237.76C1024.33 239.68 1025.38 241.696 1025.48 243.808C1025.57 245.92 1024.9 247.696 1023.46 249.136C1022.12 250.48 1020.1 251.152 1017.41 251.152C1015.11 251.152 1013.24 250.672 1011.8 249.712C1010.45 248.752 1008.87 247.36 1007.05 245.536L964.566 203.056H964.278V241.648C964.278 244.624 963.51 246.976 961.974 248.704C960.438 250.336 958.134 251.152 955.062 251.152ZM1086.63 250.72C1083.37 250.72 1080.73 249.712 1078.71 247.696C1076.79 245.68 1075.83 243.088 1075.83 239.92C1075.83 236.848 1076.79 234.352 1078.71 232.432C1080.73 230.416 1083.37 229.408 1086.63 229.408C1089.99 229.408 1092.58 230.416 1094.41 232.432C1096.33 234.352 1097.29 236.848 1097.29 239.92C1097.29 243.088 1096.33 245.68 1094.41 247.696C1092.58 249.712 1089.99 250.72 1086.63 250.72ZM1160.94 251.152C1157.97 251.152 1155.62 250.336 1153.89 248.704C1152.26 246.976 1151.44 244.528 1151.44 241.36V158.272C1151.44 155.104 1152.26 152.704 1153.89 151.072C1155.62 149.344 1158.06 148.48 1161.23 148.48H1211.49C1213.98 148.48 1215.86 149.104 1217.1 150.352C1218.35 151.6 1218.98 153.376 1218.98 155.68C1218.98 158.08 1218.35 159.952 1217.1 161.296C1215.86 162.544 1213.98 163.168 1211.49 163.168H1169.87V191.824H1208.46C1210.86 191.824 1212.69 192.448 1213.94 193.696C1215.28 194.944 1215.95 196.72 1215.95 199.024C1215.95 201.424 1215.28 203.296 1213.94 204.64C1212.69 205.888 1210.86 206.512 1208.46 206.512H1169.87V241.36C1169.87 247.888 1166.9 251.152 1160.94 251.152ZM1277.51 251.152C1274.54 251.152 1272.23 250.336 1270.6 248.704C1269.07 246.976 1268.3 244.624 1268.3 241.648V156.832C1268.3 153.76 1269.07 151.408 1270.6 149.776C1272.23 148.144 1274.54 147.328 1277.51 147.328C1280.49 147.328 1282.75 148.144 1284.28 149.776C1285.91 151.408 1286.73 153.76 1286.73 156.832V241.648C1286.73 244.624 1285.96 246.976 1284.43 248.704C1282.89 250.336 1280.59 251.152 1277.51 251.152Z" fill="#F3E9DD"/>
<path d="M388 63V343L248 203M248 203L108 63V343L248 203Z" stroke="#F7931A" stroke-width="28" stroke-linecap="round" stroke-linejoin="round"/>
</svg>
